<svg xmlns="http://www.w3.org/2000/svg" viewBox="0 0 64 64" role="img" aria-labelledby="title desc">
  <title id="title">Fixing services icon</title>
  <desc id="desc">Wrench and paintbrush icon for handyman services</desc>

  <rect width="64" height="64" rx="10" fill="#1b2b48"/>

  <g transform="translate(7 7)">
    <path d="M35 6a10 10 0 0 0-6 17l-13 13a4 4 0 0 0 6 6l13-13a10 10 0 0 0 12-15l-6 6-5-1-1-5z" fill="#ffffff"/>
    <path d="M8 38l11-11 4 4-11 11a3 3 0 0 1-4 0 3 3 0 0 1 0-4z" fill="#d32f2f"/>
    <rect x="4" y="41" width="10" height="4" rx="1.5" transform="rotate(-45 9 43)" fill="#ffffff"/>
  </g>
</svg>
